<svg width="44" height="46" viewBox="0 0 44 46" fill="none" xmlns="http://www.w3.org/2000/svg">
<g clip-path="url(#clip0_43_291)">
<path d="M20.9648 0.947201C21.4874 0.267143 22.5126 0.267142 23.0352 0.947201L26.8206 5.87319C27.1496 6.30123 27.708 6.48269 28.2257 6.32974L34.1837 4.56955C35.0062 4.32655 35.8356 4.92915 35.8586 5.7865L36.0257 11.9967C36.0402 12.5364 36.3854 13.0114 36.8941 13.192L42.7488 15.2699C43.557 15.5568 43.8738 16.5318 43.3886 17.239L39.8734 22.3614C39.568 22.8065 39.568 23.3937 39.8734 23.8388L43.3886 28.9612C43.8738 29.6684 43.557 30.6434 42.7488 30.9303L36.8941 33.0082C36.3854 33.1888 36.0402 33.6638 36.0257 34.2035L35.8586 40.4137C35.8356 41.271 35.0062 41.8736 34.1837 41.6306L28.2257 39.8705C27.708 39.7175 27.1496 39.899 26.8206 40.327L23.0352 45.253C22.5126 45.9331 21.4874 45.9331 20.9648 45.253L17.1794 40.327C16.8504 39.899 16.292 39.7175 15.7743 39.8705L9.81635 41.6306C8.99383 41.8736 8.16442 41.271 8.14136 40.4137L7.9743 34.2035C7.95978 33.6638 7.61464 33.1888 7.1059 33.0082L1.25124 30.9303C0.442971 30.6434 0.126167 29.6684 0.611448 28.9612L4.12658 23.8388C4.43202 23.3937 4.43202 22.8065 4.12658 22.3614L0.611448 17.239C0.126166 16.5318 0.44297 15.5568 1.25124 15.2699L7.1059 13.192C7.61464 13.0114 7.95978 12.5364 7.9743 11.9967L8.14136 5.7865C8.16442 4.92915 8.99383 4.32655 9.81635 4.56955L15.7743 6.32974C16.292 6.48269 16.8504 6.30123 17.1794 5.87319L20.9648 0.947201Z" fill="#257671"/>
<path d="M11.0253 35.6042C10.9407 35.6285 10.8638 35.6214 10.7945 35.583C10.7253 35.5446 10.6785 35.4832 10.6542 35.3986L8.50427 27.9007C8.48002 27.8161 8.48709 27.7392 8.52548 27.6699C8.56388 27.6007 8.62537 27.5539 8.70996 27.5296L13.8546 26.0544C13.9392 26.0302 14.0162 26.0373 14.0854 26.0756C14.1547 26.114 14.2014 26.1755 14.2257 26.2601L14.5069 27.2406C14.5311 27.3252 14.524 27.4021 14.4856 27.4714C14.4472 27.5407 14.3858 27.5874 14.3012 27.6117L10.6676 28.6536L11.2266 30.603L14.6295 29.6273C14.714 29.603 14.791 29.6101 14.8602 29.6485C14.9295 29.6869 14.9763 29.7484 15.0005 29.833L15.2817 30.8134C15.3037 30.8903 15.2956 30.9634 15.2572 31.0327C15.2188 31.102 15.1573 31.1487 15.0727 31.173L11.6698 32.1487L12.4537 34.8826C12.478 34.9672 12.4709 35.0441 12.4325 35.1134C12.3941 35.1826 12.3326 35.2294 12.248 35.2536L11.0253 35.6042ZM18.0545 33.5886C17.9699 33.6129 17.893 33.6058 17.8238 33.5674C17.7545 33.529 17.7077 33.4676 17.6835 33.383L15.5335 25.8851C15.5092 25.8005 15.5163 25.7236 15.5547 25.6543C15.5931 25.5851 15.6546 25.5383 15.7392 25.5141L18.796 24.6375C19.7573 24.3619 20.5787 24.3677 21.2603 24.655C21.9396 24.9345 22.3984 25.4896 22.6366 26.3201C22.7975 26.8815 22.7975 27.3892 22.6364 27.8432C22.4753 28.2972 22.1943 28.6815 21.7935 28.9961L24.2469 31.4135C24.2832 31.4531 24.3068 31.4921 24.3179 31.5305C24.3355 31.592 24.329 31.6563 24.2983 31.7234C24.2654 31.7828 24.2143 31.8224 24.1451 31.8422L22.8647 32.2094C22.7263 32.2491 22.6125 32.2442 22.5235 32.1949C22.4322 32.1378 22.3624 32.0829 22.314 32.0302L20.1492 29.7922L18.7535 30.1924L19.5176 32.857C19.5418 32.9416 19.5347 33.0186 19.4963 33.0878C19.458 33.1571 19.3965 33.2039 19.3119 33.2281L18.0545 33.5886ZM18.3334 28.7275L19.8099 28.3041C20.2329 28.1828 20.5168 27.9974 20.6616 27.7478C20.8141 27.496 20.8407 27.1971 20.7415 26.851C20.6423 26.505 20.464 26.2606 20.2067 26.118C19.9495 25.9754 19.6055 25.9659 19.1748 26.0893L17.6984 26.5127L18.3334 28.7275ZM25.9174 31.334C25.8328 31.3583 25.7558 31.3512 25.6866 31.3128C25.6173 31.2744 25.5705 31.2129 25.5463 31.1283L23.3963 23.6305C23.3721 23.5459 23.3791 23.469 23.4175 23.3997C23.4559 23.3304 23.5174 23.2837 23.602 23.2594L28.8274 21.7611C28.912 21.7368 28.9889 21.7439 29.0582 21.7823C29.1275 21.8207 29.1742 21.8822 29.1985 21.9667L29.4631 22.8896C29.4852 22.9665 29.477 23.0395 29.4386 23.1088C29.4002 23.1781 29.3387 23.2248 29.2541 23.2491L25.5167 24.3208L26.036 26.1318L29.5196 25.1329C29.6042 25.1086 29.6812 25.1157 29.7504 25.1541C29.8197 25.1925 29.8665 25.254 29.8907 25.3386L30.1355 26.1922C30.1575 26.2691 30.1494 26.3421 30.111 26.4114C30.0726 26.4807 30.0111 26.5274 29.9265 26.5517L26.4429 27.5506L26.9787 29.4193L30.8084 28.3212C30.893 28.2969 30.9699 28.304 31.0392 28.3424C31.1084 28.3808 31.1552 28.4423 31.1794 28.5269L31.4407 29.4381C31.465 29.5227 31.4579 29.5996 31.4195 29.6689C31.3811 29.7382 31.3197 29.7849 31.2351 29.8092L25.9174 31.334ZM33.1831 29.2506C33.0986 29.2748 33.0216 29.2678 32.9524 29.2294C32.8831 29.191 32.8363 29.1295 32.8121 29.0449L30.6621 21.5471C30.6378 21.4625 30.6449 21.3855 30.6833 21.3163C30.7217 21.247 30.7832 21.2002 30.8678 21.176L36.0932 19.6776C36.1778 19.6534 36.2547 19.6604 36.324 19.6988C36.3933 19.7372 36.44 19.7987 36.4643 19.8833L36.7289 20.8061C36.7509 20.883 36.7428 20.9561 36.7044 21.0254C36.666 21.0946 36.6045 21.1414 36.5199 21.1657L32.7825 22.2373L33.3018 24.0484L36.7854 23.0494C36.87 23.0252 36.9469 23.0323 37.0162 23.0707C37.0855 23.109 37.1322 23.1705 37.1565 23.2551L37.4013 24.1087C37.4233 24.1856 37.4151 24.2587 37.3767 24.328C37.3384 24.3973 37.2769 24.444 37.1923 24.4683L33.7087 25.4672L34.2445 27.3359L38.0742 26.2377C38.1588 26.2135 38.2357 26.2205 38.3049 26.2589C38.3742 26.2973 38.421 26.3588 38.4452 26.4434L38.7065 27.3547C38.7308 27.4393 38.7237 27.5162 38.6853 27.5855C38.6469 27.6547 38.5854 27.7015 38.5008 27.7258L33.1831 29.2506Z" fill="white"/>
<path d="M13.5387 21.4067C13.4541 21.431 13.3821 21.4267 13.3227 21.3937C13.2612 21.3531 13.2193 21.2944 13.1973 21.2175L11.0341 13.6735C11.012 13.5966 11.0175 13.5285 11.0504 13.4691C11.0811 13.402 11.1387 13.3564 11.2233 13.3321L11.8347 13.1568C11.9116 13.1348 11.9808 13.1441 12.0424 13.1847C12.1095 13.2154 12.154 13.2692 12.1761 13.3461L14.3393 20.89C14.3613 20.9669 14.3531 21.04 14.3148 21.1093C14.2818 21.1687 14.2269 21.2094 14.15 21.2314L13.5387 21.4067ZM18.6192 19.9499C18.1885 20.0734 17.8155 20.093 17.5 20.0087C17.1824 19.9167 16.919 19.7384 16.71 19.4737C16.4987 19.2014 16.3336 18.8576 16.2145 18.4423L15.3413 15.3971L14.4415 15.6551C14.3646 15.6771 14.2926 15.6728 14.2256 15.6421C14.164 15.6015 14.1222 15.5427 14.1001 15.4658L13.9877 15.0736C13.9656 14.9967 13.9711 14.9286 14.004 14.8692C14.0424 14.8 14.1 14.7543 14.1769 14.7322L15.0767 14.4743L14.5243 12.5479C14.5022 12.471 14.5077 12.4028 14.5406 12.3435C14.579 12.2742 14.6366 12.2286 14.7135 12.2065L15.2557 12.051C15.3326 12.029 15.4018 12.0383 15.4634 12.0789C15.5304 12.1096 15.575 12.1634 15.597 12.2403L16.1494 14.1666L17.5798 13.7565C17.6567 13.7344 17.7259 13.7437 17.7875 13.7843C17.8546 13.815 17.8991 13.8688 17.9212 13.9457L18.0336 14.3379C18.0557 14.4148 18.0475 14.4879 18.0091 14.5572C17.9762 14.6165 17.9213 14.6573 17.8444 14.6793L16.414 15.0895L17.2641 18.054C17.3677 18.4154 17.5108 18.6823 17.6934 18.8547C17.876 19.027 18.1249 19.068 18.4402 18.9776L19.1439 18.7758C19.2208 18.7538 19.29 18.763 19.3516 18.8036C19.4187 18.8343 19.4632 18.8881 19.4853 18.965L19.6043 19.3803C19.6264 19.4572 19.6182 19.5303 19.5798 19.5996C19.5469 19.6589 19.492 19.6996 19.4151 19.7217L18.6192 19.9499ZM19.0619 13.369C19.0004 13.3866 18.9438 13.3779 18.8921 13.3427C18.8481 13.3054 18.82 13.2511 18.8079 13.1796L18.6002 11.454C18.5891 11.3574 18.5978 11.2716 18.6263 11.1969C18.6603 11.1122 18.7273 11.0556 18.8272 11.0269L19.6001 10.8053C19.6539 10.7899 19.7028 10.8008 19.7468 10.8381C19.7963 10.8655 19.8276 10.9023 19.8409 10.9485C19.8585 11.01 19.8608 11.0759 19.8477 11.1463L19.701 12.8986C19.6923 12.9843 19.6687 13.0618 19.6303 13.1311C19.5974 13.1904 19.531 13.2344 19.431 13.2631L19.0619 13.369ZM25.112 18.213C24.6814 18.3364 24.2968 18.3885 23.9583 18.369C23.6199 18.3495 23.3325 18.2905 23.0961 18.1918C22.8597 18.0931 22.6695 17.9812 22.5255 17.8561C22.3891 17.7287 22.3038 17.62 22.2697 17.53C22.2377 17.4476 22.2459 17.3745 22.2942 17.3107C22.3425 17.2469 22.3974 17.2062 22.4589 17.1886L22.9664 17.043C23.0126 17.0298 23.0494 17.0276 23.0769 17.0363C23.1098 17.0352 23.1571 17.055 23.2187 17.0956C23.3495 17.1745 23.4919 17.2502 23.6458 17.3226C23.7997 17.395 23.975 17.4404 24.1718 17.4589C24.3762 17.4752 24.613 17.4448 24.8821 17.3676C25.2743 17.2551 25.5763 17.0895 25.7882 16.8706C25.9979 16.644 26.0608 16.3846 25.977 16.0924C25.9219 15.9001 25.824 15.7618 25.6832 15.6773C25.5502 15.5906 25.3359 15.5397 25.0402 15.5246C24.7523 15.5073 24.3633 15.5148 23.8732 15.5471C23.381 15.5718 22.9782 15.5458 22.6649 15.4692C22.3495 15.3849 22.1032 15.2516 21.9261 15.0693C21.7468 14.8794 21.6175 14.646 21.5381 14.3692C21.4565 14.0846 21.4628 13.7874 21.557 13.4774C21.649 13.1597 21.8323 12.87 22.1067 12.6082C22.3889 12.3442 22.7761 12.1416 23.2682 12.0005C23.6681 11.8859 24.0246 11.8377 24.3378 11.8561C24.651 11.8745 24.922 11.9341 25.1506 12.035C25.3771 12.1282 25.5574 12.2346 25.6916 12.3543C25.8258 12.4739 25.911 12.5826 25.9474 12.6804C25.9771 12.7551 25.9728 12.8271 25.9344 12.8963C25.8938 12.9579 25.8389 12.9986 25.7697 13.0185L25.2852 13.1574C25.2314 13.1728 25.182 13.1745 25.1369 13.1625C25.0995 13.1482 25.061 13.1301 25.0215 13.1082C24.9159 13.0303 24.7949 12.9567 24.6586 12.8876C24.53 12.8163 24.3722 12.7742 24.1854 12.7612C24.0041 12.7383 23.7788 12.7654 23.5097 12.8426C23.1252 12.9528 22.86 13.1163 22.714 13.3329C22.5681 13.5495 22.5304 13.7809 22.6009 14.027C22.6428 14.1731 22.7226 14.2917 22.8403 14.3828C22.9579 14.4739 23.1492 14.5314 23.4141 14.5553C23.6789 14.5792 24.0613 14.5778 24.5613 14.5509C25.0975 14.5053 25.536 14.5252 25.8767 14.6106C26.2175 14.696 26.4813 14.8326 26.6683 15.0203C26.8553 15.208 26.9907 15.448 27.0745 15.7402C27.1671 16.0632 27.1559 16.3869 27.0408 16.7111C26.9334 17.0332 26.7183 17.3279 26.3955 17.5953C26.0782 17.8527 25.6503 18.0586 25.112 18.213Z" fill="white"/>
</g>
<defs>
<clipPath id="clip0_43_291">
<rect width="44" height="46" fill="white"/>
</clipPath>
</defs>
</svg>
